<mxfile host="app.diagrams.net" modified="2022-12-28T04:16:30.450Z" agent="5.0 (Windows NT 10.0; Win64; x64) AppleWebKit/537.36 (KHTML, like Gecko) Chrome/108.0.0.0 Safari/537.36" etag="qnrG5J1fH86vsygVBNg9" version="20.7.4" type="github">
  <diagram id="iWz2qtbbjhhTebx2yyRa" name="第 1 页">
    <mxGraphModel dx="398" dy="223" grid="1" gridSize="10" guides="1" tooltips="1" connect="1" arrows="1" fold="1" page="1" pageScale="1" pageWidth="827" pageHeight="1169" math="0" shadow="0">
      <root>
        <mxCell id="0" />
        <mxCell id="1" parent="0" />
        <mxCell id="Tmfk9sHc0K4jFwuVmGib-3" value="" style="shape=or;whiteSpace=wrap;html=1;rotation=-90;strokeColor=#FF0000;fillColor=none;strokeWidth=1;" vertex="1" parent="1">
          <mxGeometry x="238.75" y="176.25" width="42.5" height="3.75" as="geometry" />
        </mxCell>
        <mxCell id="Tmfk9sHc0K4jFwuVmGib-7" value="" style="shape=or;whiteSpace=wrap;html=1;rotation=-90;strokeColor=#007FFF;fillColor=none;strokeWidth=1;" vertex="1" parent="1">
          <mxGeometry x="260" y="176.25" width="42.5" height="3.75" as="geometry" />
        </mxCell>
        <mxCell id="Tmfk9sHc0K4jFwuVmGib-8" value="" style="shape=or;whiteSpace=wrap;html=1;rotation=-90;strokeColor=#FF0000;fillColor=none;strokeWidth=1;" vertex="1" parent="1">
          <mxGeometry x="281.25" y="176.25" width="42.5" height="3.75" as="geometry" />
        </mxCell>
        <mxCell id="Tmfk9sHc0K4jFwuVmGib-9" value="" style="shape=or;whiteSpace=wrap;html=1;rotation=-90;strokeColor=#FF0000;fillColor=none;strokeWidth=1;" vertex="1" parent="1">
          <mxGeometry x="302.5" y="176.25" width="42.5" height="3.75" as="geometry" />
        </mxCell>
        <mxCell id="Tmfk9sHc0K4jFwuVmGib-10" value="" style="shape=or;whiteSpace=wrap;html=1;rotation=-90;strokeColor=#FF0000;fillColor=none;strokeWidth=1;" vertex="1" parent="1">
          <mxGeometry x="323.75" y="176.25" width="42.5" height="3.75" as="geometry" />
        </mxCell>
        <mxCell id="Tmfk9sHc0K4jFwuVmGib-11" value="" style="shape=or;whiteSpace=wrap;html=1;rotation=-90;strokeColor=#FF0000;fillColor=none;strokeWidth=1;" vertex="1" parent="1">
          <mxGeometry x="345" y="176.25" width="42.5" height="3.75" as="geometry" />
        </mxCell>
        <mxCell id="Tmfk9sHc0K4jFwuVmGib-12" value="" style="shape=or;whiteSpace=wrap;html=1;rotation=-90;strokeColor=#FF0000;fillColor=none;strokeWidth=1;" vertex="1" parent="1">
          <mxGeometry x="366.25" y="176.25" width="42.5" height="3.75" as="geometry" />
        </mxCell>
        <mxCell id="Tmfk9sHc0K4jFwuVmGib-1" value="" style="endArrow=classic;html=1;rounded=0;strokeWidth=2;" edge="1" parent="1">
          <mxGeometry width="50" height="50" relative="1" as="geometry">
            <mxPoint x="40" y="200" as="sourcePoint" />
            <mxPoint x="440" y="200" as="targetPoint" />
          </mxGeometry>
        </mxCell>
      </root>
    </mxGraphModel>
  </diagram>
</mxfile>
